<?xml version="1.0" encoding="utf-8"?>
<!-- Generator: Adobe Illustrator 26.3.1, SVG Export Plug-In . SVG Version: 6.00 Build 0)  -->
<svg version="1.1" id="Livello_1" xmlns="http://www.w3.org/2000/svg" xmlns:xlink="http://www.w3.org/1999/xlink" x="0px" y="0px"
	 viewBox="0 0 95.8 32.6" style="enable-background:new 0 0 95.8 32.6;" xml:space="preserve">
<style type="text/css">
	.st0{fill:#1D1D1B;}
	.st1{fill:#006633;}
	.st2{fill:#58B67A;}
	.st3{fill:#42B06F;}
	.st4{fill:#CD1B43;}
	.st5{fill:#F7F4EC;}
</style>
<g id="Livello_2_00000084500701085404693370000007560936012500653956_">
	<g id="LOGO">
		<g id="OPT_6">
			<path class="st0" d="M21.8,11.3c0.5,0,1.1-0.1,1.6-0.2c0.5-0.1,0.9-0.3,1.3-0.5c0.2-0.2,0.6-0.1,0.7,0.1c0.1,0.1,0.1,0.1,0.1,0.2
				l0.6,1.5c0.1,0.3,0.1,0.6-0.1,0.7c-0.7,0.4-1.4,0.7-2.1,0.9c-0.7,0.2-1.4,0.3-2.2,0.3c-1.2,0-2.4-0.3-3.4-0.9
				c-1-0.6-1.8-1.4-2.3-2.4c-0.6-1.1-0.8-2.4-0.8-3.6c0-1.3,0.2-2.5,0.8-3.6c0.5-1,1.3-1.8,2.3-2.4c1.1-0.6,2.3-0.9,3.5-0.9
				c0.7,0,1.4,0.1,2.1,0.3c0.7,0.2,1.4,0.5,2.1,0.9c0.2,0.1,0.3,0.4,0.1,0.7L25.5,4c0,0.2-0.2,0.3-0.3,0.4c-0.2,0-0.4,0-0.5-0.1
				c-0.4-0.2-0.9-0.3-1.3-0.5c-0.5-0.2-1-0.2-1.6-0.2c-0.7,0-1.4,0.2-2,0.5c-0.5,0.3-1,0.8-1.2,1.4c-0.3,0.6-0.4,1.3-0.4,2
				c0,0.7,0.1,1.4,0.4,2c0.3,0.6,0.7,1.1,1.2,1.4C20.4,11.2,21.1,11.4,21.8,11.3z"/>
			<path class="st0" d="M30.2,13c0.1,0.4-0.2,0.7-0.6,0.8c-0.1,0-0.1,0-0.2,0h-1.2c-0.4,0.1-0.7-0.2-0.8-0.6c0-0.1,0-0.1,0-0.2V0.8
				C27.4,0.4,27.7,0.1,28,0c0.1,0,0.1,0,0.2,0h1.2c0.4-0.1,0.7,0.2,0.8,0.6c0,0.1,0,0.1,0,0.2v4.6c0.3-0.6,0.8-1,1.4-1.3
				c0.5-0.3,1.1-0.4,1.7-0.4c0.9,0,1.8,0.3,2.4,1c0.7,0.9,1,2,1,3.1v5.6c0.1,0.4-0.2,0.7-0.6,0.8c-0.1,0-0.1,0-0.2,0h-1.2
				c-0.4,0.1-0.7-0.2-0.8-0.6c0-0.1,0-0.1,0-0.2V8.7c0-0.6-0.1-1.1-0.4-1.6c-0.3-0.3-0.7-0.5-1.1-0.5c-0.4,0-0.8,0.1-1.1,0.3
				c-0.3,0.2-0.6,0.5-0.8,0.9c-0.2,0.5-0.3,1-0.3,1.5V13z"/>
			<path class="st0" d="M40.6,13.5c0,0.6-0.3,0.8-0.8,0.8h-1.2c-0.5,0-0.8-0.3-0.8-0.8V5.2c0-0.6,0.3-0.8,0.8-0.8h1.2
				c0.5,0,0.8,0.3,0.8,0.8V13.5z"/>
			<path class="st0" d="M49.2,14.1h-1.5c-0.3,0-0.5-0.1-0.5-0.4c0,0,0-0.1,0-0.1v-0.8c-0.3,0.3-0.6,0.5-1,0.7
				c-0.4,0.2-0.8,0.3-1.2,0.3h-0.3c-0.6,0-1.2-0.1-1.7-0.4c-0.5-0.2-0.9-0.6-1.1-1.1c-0.5-0.9-0.5-2.1,0-3c0.3-0.5,0.6-0.8,1.1-1.1
				c0.6-0.3,1.3-0.4,2-0.4c0.4,0,0.8,0.1,1.1,0.2c0.4,0.1,0.7,0.2,1.1,0.3c0-0.1,0-0.1,0-0.2V8c-0.1-0.4-0.3-0.8-0.6-1
				c-0.4-0.2-0.8-0.4-1.2-0.3c-0.4,0-0.7,0.1-1.1,0.2c-0.4,0.1-0.7,0.3-1.1,0.5c-0.2,0.2-0.5,0-0.7-0.3l-0.2-0.5L42,6
				c0,0,0-0.1-0.1-0.1c0,0,0-0.1,0-0.2c0-0.2,0-0.4,0.2-0.5c0.5-0.4,1-0.6,1.6-0.8c0.6-0.2,1.3-0.3,2-0.3c1.1-0.1,2.2,0.3,3,1.1
				c0.8,0.8,1.2,1.9,1.1,3.1v5.3c0,0.1,0,0.1,0,0.2v0.1C49.7,14.1,49.4,14.2,49.2,14.1z M45.3,11.5c0.3,0,0.5,0,0.8-0.1
				c0.2-0.1,0.5-0.2,0.7-0.3c0.2-0.1,0.3-0.3,0.4-0.4c0-0.1,0-0.1,0-0.2c0-0.1,0-0.1,0-0.2v-0.1c-0.3-0.1-0.7-0.2-1-0.3
				c-0.3-0.1-0.6-0.1-0.9-0.1c-0.3,0-0.6,0-0.9,0.2c-0.3,0.2-0.4,0.6-0.3,0.9c0.1,0.1,0.1,0.2,0.3,0.3
				C44.6,11.5,44.9,11.6,45.3,11.5z"/>
			<path class="st0" d="M53.7,13.5c0.1,0.4-0.2,0.7-0.6,0.8c-0.1,0-0.1,0-0.2,0h-1.2c-0.4,0.1-0.7-0.2-0.8-0.6c0-0.1,0-0.1,0-0.2
				V4.2c-0.1-0.4,0.2-0.7,0.6-0.8c0.1,0,0.1,0,0.2,0H53c0.4-0.1,0.7,0.2,0.8,0.6c0,0.1,0,0.1,0,0.2v1.6c0.3-0.5,0.7-0.9,1.2-1.2
				c0.4-0.3,0.9-0.4,1.4-0.4c0.2,0,0.4,0,0.6,0.1c0.2,0,0.4,0.1,0.5,0.2c0.1,0.1,0.2,0.2,0.2,0.4l-0.2,2.3c0,0.1-0.1,0.2-0.2,0.3
				c-0.1,0-0.3,0-0.4,0c-0.2-0.1-0.5-0.1-0.7-0.1h-0.5c-0.5,0-1,0.2-1.4,0.6c-0.4,0.5-0.6,1.2-0.6,1.8L53.7,13.5z"/>
			<path class="st0" d="M65.3,14.2h-1.5c-0.3,0-0.5-0.1-0.5-0.4c0,0,0-0.1,0-0.1v-0.8c-0.3,0.3-0.6,0.5-1,0.7
				c-0.4,0.2-0.8,0.3-1.2,0.3h-0.3c-0.6,0-1.1-0.1-1.6-0.4c-0.5-0.2-0.9-0.6-1.1-1.1c-0.3-0.5-0.4-1-0.4-1.5c0-0.5,0.1-1,0.3-1.5
				c0.3-0.5,0.6-0.8,1.1-1.1c0.6-0.3,1.3-0.4,2-0.4c0.4,0,0.8,0,1.1,0.1c0.4,0.1,0.7,0.2,1.1,0.3c0-0.1,0-0.1,0-0.2
				c0-0.1,0-0.1,0-0.2c-0.1-0.4-0.3-0.8-0.6-1c-0.4-0.2-0.8-0.4-1.2-0.3c-0.4,0-0.7,0.1-1.1,0.2c-0.4,0.1-0.7,0.3-1.1,0.5
				c-0.2,0.2-0.5,0-0.7-0.3l-0.2-0.5L58.1,6c0,0,0-0.1-0.1-0.1c0,0,0-0.1,0-0.2c0-0.2,0-0.4,0.2-0.5c0.5-0.4,1-0.6,1.6-0.8
				c0.6-0.2,1.3-0.3,2-0.3c1.1-0.1,2.2,0.3,3,1.1c0.8,0.8,1.2,1.9,1.1,3.1v5.3c0,0.1,0,0.1,0,0.2c0,0,0,0.1,0,0.1
				C65.8,14.2,65.6,14.3,65.3,14.2z M61.5,11.6c0.3,0,0.5,0,0.8-0.1c0.2-0.1,0.5-0.2,0.7-0.3c0.2-0.1,0.3-0.3,0.4-0.4
				c0-0.1,0-0.1,0-0.2c0-0.1,0-0.1,0-0.2v-0.1c-0.3-0.1-0.7-0.2-1-0.3C62,10,61.6,10,61.3,10c-0.3,0-0.6,0.1-0.9,0.2
				c-0.2,0.1-0.3,0.3-0.3,0.6c0,0.3,0.1,0.5,0.4,0.6C60.8,11.5,61.1,11.6,61.5,11.6z"/>
			<path class="st0" d="M12,28.8c0,0.5-0.3,0.8-0.8,0.8H9.8c-0.5,0-0.8-0.3-0.8-0.9v-0.9c-0.4,0.2-0.7,0.3-1.2,0.4
				c-0.4,0.1-0.8,0.1-1.2,0.1c-1.2,0-2.5-0.3-3.5-0.9c-1-0.6-1.8-1.5-2.3-2.5C0.2,23.8,0,22.6,0,21.3c0-1.3,0.3-2.5,0.9-3.6
				c0.6-1,1.4-1.9,2.4-2.4c1.1-0.6,2.4-0.9,3.7-0.9c0.8,0,1.6,0.1,2.3,0.3c0.8,0.2,1.5,0.5,2.2,0.9c0.2,0.1,0.3,0.4,0.1,0.8
				l-0.6,1.5c0,0.2-0.2,0.3-0.3,0.4c-0.2,0-0.4,0-0.6-0.1c-0.3-0.1-0.6-0.2-0.9-0.3c-0.4-0.1-0.7-0.2-1.1-0.3
				c-0.4-0.1-0.8-0.1-1.1-0.1c-0.8,0-1.5,0.1-2.2,0.5c-0.6,0.3-1,0.8-1.3,1.4c-0.3,0.6-0.5,1.3-0.5,2c0,0.8,0.1,1.5,0.5,2.2
				c0.3,0.6,0.8,1.2,1.4,1.5c0.7,0.4,1.5,0.6,2.3,0.5c0.2,0,0.5,0,0.8,0c0.3,0,0.7-0.1,1-0.2v-1.8l-2.2,0.1H6.7H6.5
				c-0.3-0.1-0.5-0.4-0.4-0.8v-1.4C6,21,6.3,20.6,6.7,20.5c0.1,0,0.1,0,0.2,0l4.3-0.2h0.2c0.1,0,0.1,0,0.2,0
				c0.3,0.1,0.4,0.4,0.4,0.8L12,28.8L12,28.8z"/>
			<path class="st0" d="M16.8,28.3c0.1,0.4-0.2,0.8-0.6,0.8c-0.1,0-0.1,0-0.2,0h-1.2c-0.4,0.1-0.8-0.2-0.8-0.6c0-0.1,0-0.1,0-0.2
				v-13c-0.1-0.4,0.2-0.8,0.6-0.8c0.1,0,0.1,0,0.2,0H16c0.4-0.1,0.8,0.2,0.8,0.6c0,0.1,0,0.1,0,0.2v4.9c0.4-0.6,0.9-1.1,1.5-1.4
				c0.5-0.3,1.1-0.4,1.7-0.4c0.9,0,1.8,0.3,2.5,1c0.7,0.9,1.1,2.1,1,3.3v6c0.1,0.4-0.2,0.8-0.6,0.8c-0.1,0-0.1,0-0.2,0h-1.2
				c-0.4,0.1-0.8-0.2-0.8-0.6c0-0.1,0-0.1,0-0.2v-5c0-0.6-0.1-1.2-0.4-1.7c-0.3-0.4-0.7-0.6-1.2-0.5c-0.4,0-0.8,0.1-1.2,0.3
				c-0.3,0.2-0.6,0.5-0.8,0.9c-0.2,0.5-0.3,1-0.3,1.6L16.8,28.3z"/>
			<path class="st0" d="M26.5,19.6c-0.4,0-0.8-0.2-1.1-0.5C25.2,18.9,25,18.5,25,18c0-0.4,0.2-0.8,0.5-1c0.6-0.6,1.6-0.6,2.2,0
				c0.3,0.3,0.4,0.7,0.4,1.1c0,0.4-0.2,0.8-0.5,1.1C27.3,19.5,26.9,19.6,26.5,19.6z M27.8,28.8c0,0.4-0.2,0.7-0.6,0.7
				c-0.1,0-0.1,0-0.2,0H26c-0.4,0-0.7-0.2-0.7-0.6c0-0.1,0-0.1,0-0.2v-7.3c-0.1-0.3,0.2-0.7,0.5-0.7c0.1,0,0.1,0,0.2,0h1.1
				c0.3-0.1,0.7,0.2,0.7,0.5c0,0.1,0,0.1,0,0.2L27.8,28.8z"/>
			<path class="st0" d="M32.4,28.7c0.1,0.4-0.2,0.8-0.6,0.8c-0.1,0-0.1,0-0.2,0h-1.2c-0.4,0.1-0.8-0.2-0.8-0.6c0-0.1,0-0.1,0-0.2
				v-9.7c-0.1-0.4,0.2-0.8,0.6-0.8c0.1,0,0.1,0,0.2,0h1.2c0.4-0.1,0.8,0.2,0.8,0.6c0,0.1,0,0.1,0,0.2v1.7c0.3-0.5,0.7-1,1.2-1.3
				c0.4-0.3,0.9-0.5,1.5-0.5c0.2,0,0.5,0,0.7,0.1c0.2,0,0.4,0.1,0.5,0.2c0.1,0.1,0.2,0.2,0.2,0.4L36.3,22c0,0.1-0.1,0.2-0.2,0.3
				c-0.1,0.1-0.3,0.1-0.4,0c-0.3-0.1-0.5-0.1-0.7-0.1h-0.6c-0.5,0-1.1,0.2-1.4,0.6c-0.4,0.5-0.6,1.2-0.6,1.9L32.4,28.7z"/>
			<path class="st0" d="M38.5,19.6c-0.4,0-0.8-0.2-1.1-0.5C37.1,18.9,37,18.5,37,18c0-0.4,0.1-0.8,0.4-1c0.6-0.6,1.6-0.6,2.2,0
				c0.3,0.3,0.4,0.7,0.4,1.1c0,0.4-0.2,0.8-0.5,1.1C39.3,19.5,38.9,19.6,38.5,19.6z M39.8,28.8c0,0.4-0.2,0.7-0.6,0.7
				c-0.1,0-0.1,0-0.2,0h-1c-0.4,0-0.7-0.2-0.7-0.5c0-0.1,0-0.1,0-0.2v-7.3c-0.1-0.3,0.2-0.7,0.5-0.7c0.1,0,0.1,0,0.2,0h1.1
				c0.3-0.1,0.7,0.2,0.7,0.5c0,0.1,0,0.1,0,0.2L39.8,28.8z"/>
			<path class="st0" d="M44.4,28.7c0.1,0.4-0.2,0.8-0.6,0.8c-0.1,0-0.1,0-0.2,0h-1.2c-0.4,0.1-0.8-0.2-0.8-0.6c0-0.1,0-0.1,0-0.2
				v-9.9c-0.1-0.4,0.2-0.8,0.6-0.8c0.1,0,0.1,0,0.2,0h1.2c0.4-0.1,0.8,0.2,0.8,0.6c0,0.1,0,0.1,0,0.2v1.5c0.4-0.6,0.9-1,1.5-1.4
				c0.5-0.3,1.1-0.4,1.8-0.5c0.9,0,1.8,0.3,2.5,1c0.7,0.9,1.1,2.1,1,3.3v5.4c0.1,0.4-0.2,0.8-0.6,0.8c-0.1,0-0.1,0-0.2,0H49
				c-0.4,0.1-0.8-0.2-0.8-0.6c0-0.1,0-0.1,0-0.2v-4.5c0-0.6-0.1-1.2-0.4-1.7c-0.3-0.4-0.7-0.6-1.2-0.5c-0.4,0-0.8,0.1-1.2,0.3
				c-0.4,0.2-0.6,0.5-0.8,0.9c-0.2,0.5-0.3,1-0.3,1.5L44.4,28.7z"/>
			<path class="st0" d="M57.2,32.6c-0.7,0-1.5-0.1-2.2-0.3c-0.7-0.1-1.4-0.5-1.9-0.9c-0.2-0.1-0.2-0.3-0.2-0.4
				c0-0.2,0.1-0.3,0.2-0.5l0.5-1.2c0.1-0.2,0.2-0.3,0.3-0.4c0.1-0.1,0.3-0.1,0.4,0c0.3,0.1,0.6,0.3,0.8,0.4c0.3,0.1,0.7,0.2,1,0.2
				c0.3,0.1,0.7,0.1,1,0.1c0.3,0,0.7,0,1-0.2c0.3-0.1,0.5-0.3,0.7-0.6c0.2-0.3,0.3-0.7,0.3-1.1v-1.1c-0.4,0.4-0.8,0.7-1.3,0.9
				c-1.2,0.5-2.6,0.4-3.8-0.3c-0.7-0.4-1.2-1-1.6-1.7c-0.4-0.8-0.6-1.7-0.5-2.6c0-1,0.2-1.9,0.7-2.8c0.4-0.8,1.1-1.4,1.9-1.8
				c0.8-0.4,1.7-0.7,2.6-0.6c0.3,0,0.7,0,1,0.1c0.3,0,0.7,0.1,1,0.2v-0.2c-0.1-0.4,0.2-0.8,0.6-0.8c0.1,0,0.1,0,0.2,0h1.2
				c0.4-0.1,0.8,0.2,0.8,0.6c0,0.1,0,0.1,0,0.2v10.4c0,0.9-0.2,1.8-0.6,2.6c-0.4,0.7-1,1.2-1.7,1.4C58.8,32.5,58,32.6,57.2,32.6z
				 M56.8,24.9c0.4,0,0.9-0.1,1.2-0.3c0.3-0.2,0.6-0.6,0.8-0.9c0.2-0.5,0.3-1,0.3-1.5V21c-0.3-0.1-0.7-0.2-1-0.2
				c-0.4-0.1-0.7-0.1-1.1-0.1c-0.6,0-1.2,0.2-1.6,0.6c-0.4,0.5-0.7,1.1-0.6,1.7c0,0.3,0.1,0.7,0.2,1c0.2,0.3,0.4,0.5,0.7,0.7
				C56.1,24.8,56.4,24.9,56.8,24.9z"/>
			<path class="st0" d="M66.1,28.4c0,0.5-0.3,0.8-0.8,0.8h-1.2c-0.5,0-0.8-0.3-0.8-0.8V16.3c0-0.5,0.3-0.8,0.8-0.8h1.2
				c0.6,0,0.8,0.3,0.8,0.8v4.6c0.4-0.5,0.9-1,1.5-1.3c0.5-0.3,1.1-0.4,1.8-0.4c0.9,0,1.8,0.3,2.5,1c0.7,0.9,1.1,2,1,3.1v5.5
				c0,0.5-0.3,0.8-0.8,0.8h-1.3c-0.6,0-0.8-0.3-0.8-0.8v-4.7c0-0.6-0.1-1.1-0.4-1.6c-0.3-0.4-0.7-0.6-1.2-0.5
				c-0.4,0-0.8,0.1-1.2,0.3c-0.3,0.2-0.6,0.5-0.8,0.9c-0.2,0.5-0.3,1-0.3,1.5V28.4z"/>
			<path class="st0" d="M79,29.6c-1,0-2-0.2-2.8-0.7c-0.8-0.4-1.5-1.1-1.9-1.9c-0.5-0.9-0.7-1.8-0.7-2.8c0-0.9,0.2-1.9,0.6-2.7
				c0.4-0.8,1-1.5,1.7-2c0.9-0.5,1.9-0.8,2.9-0.7c0.8,0,1.6,0.2,2.3,0.6c0.7,0.4,1.2,1,1.6,1.7c0.4,0.8,0.6,1.6,0.6,2.5
				c0,0.3,0,0.6-0.1,0.9c-0.1,0.2-0.3,0.3-0.7,0.4l-5.8,0.7c0.2,0.5,0.6,0.9,1,1.1c0.5,0.3,1.1,0.5,1.7,0.4c0.4,0,0.8-0.1,1.2-0.3
				c0.4-0.2,0.8-0.4,1.1-0.6c0.1-0.1,0.3-0.1,0.4,0c0.2,0.1,0.3,0.2,0.3,0.4l0.4,1.1c0.1,0.2,0.1,0.3,0.1,0.5c0,0.1,0,0.2-0.2,0.4
				c-0.5,0.4-1.2,0.7-1.8,0.9C80.4,29.5,79.7,29.6,79,29.6z M78.6,21.5c-0.5,0-0.9,0.1-1.3,0.4c-0.4,0.3-0.6,0.8-0.7,1.3l3.7-0.4
				c-0.1-0.4-0.3-0.7-0.6-0.9C79.4,21.6,79,21.4,78.6,21.5z"/>
			<path class="st0" d="M87.2,28.7c0.1,0.4-0.2,0.8-0.6,0.8c-0.1,0-0.1,0-0.2,0H85c-0.4,0.1-0.8-0.2-0.8-0.6c0-0.1,0-0.1,0-0.2V15.6
				c-0.1-0.4,0.2-0.8,0.6-0.8c0.1,0,0.1,0,0.2,0h1.3c0.4-0.1,0.8,0.2,0.8,0.6c0,0.1,0,0.1,0,0.2L87.2,28.7z"/>
			<path class="st0" d="M91.3,28.7c0.1,0.4-0.2,0.8-0.6,0.8c-0.1,0-0.1,0-0.2,0h-1.3c-0.4,0.1-0.8-0.2-0.8-0.6c0-0.1,0-0.1,0-0.2
				V15.6c-0.1-0.4,0.2-0.8,0.6-0.8c0.1,0,0.1,0,0.2,0h1.3c0.4-0.1,0.8,0.2,0.8,0.6c0,0.1,0,0.1,0,0.2V28.7z"/>
			<path class="st0" d="M94.2,19.6c-0.8,0-1.5-0.7-1.6-1.6c0-0.4,0.2-0.8,0.5-1.1c0.6-0.6,1.6-0.6,2.2,0c0.3,0.3,0.4,0.7,0.4,1.1
				C95.7,18.9,95.1,19.6,94.2,19.6L94.2,19.6z M95.5,28.8c0,0.4-0.2,0.7-0.6,0.7c-0.1,0-0.1,0-0.2,0h-1.1c-0.4,0-0.7-0.2-0.7-0.5
				c0-0.1,0-0.1,0-0.2v-7.3c-0.1-0.3,0.2-0.7,0.5-0.7c0.1,0,0.1,0,0.2,0h1.1c0.3-0.1,0.7,0.2,0.7,0.5c0,0.1,0,0.1,0,0.2L95.5,28.8z"
				/>
			<path class="st0" d="M39.2,3.1c-0.4,0-0.8-0.2-1.1-0.5c-0.3-0.3-0.5-0.7-0.5-1.1c0-0.4,0.2-0.8,0.5-1.1C38.4,0.2,38.8,0,39.2,0
				c0.4,0,0.8,0.2,1.1,0.5c0.3,0.3,0.5,0.7,0.5,1.1c0,0.4-0.2,0.8-0.5,1.1C40,2.9,39.7,3.1,39.2,3.1z"/>
			<g id="FRAGOLINA_2">
				<g id="ERBETTA_2">
					
						<rect x="79" y="2.7" transform="matrix(0.5848 -0.8112 0.8112 0.5848 30.3308 66.1098)" class="st1" width="1.4" height="1.4"/>
					
						<rect x="80.2" y="3.6" transform="matrix(0.5848 -0.8112 0.8112 0.5848 30.1297 67.4082)" class="st1" width="1.4" height="1.4"/>
					
						<rect x="79.3" y="4.7" transform="matrix(0.5848 -0.8112 0.8112 0.5848 28.8313 67.2071)" class="st1" width="1.4" height="1.4"/>
					
						<rect x="78.2" y="3.9" transform="matrix(0.5848 -0.8112 0.8112 0.5848 29.0324 65.9087)" class="st1" width="1.4" height="1.4"/>
					<rect x="77" y="3" transform="matrix(0.5848 -0.8112 0.8112 0.5848 29.2321 64.6194)" class="st1" width="1.4" height="1.4"/>
					<rect x="77.3" y="5" transform="matrix(0.5848 -0.8112 0.8112 0.5848 27.743 65.709)" class="st1" width="1.4" height="1.4"/>
					
						<rect x="80.5" y="5.6" transform="matrix(0.5848 -0.8112 0.8112 0.5848 28.6316 68.4965)" class="st1" width="1.4" height="1.4"/>
					
						<rect x="78.5" y="5.9" transform="matrix(0.5848 -0.8112 0.8112 0.5848 27.5419 67.0074)" class="st1" width="1.4" height="1.4"/>
					
						<rect x="80.8" y="7.6" transform="matrix(0.5848 -0.8112 0.8112 0.5848 27.1534 69.5991)" class="st2" width="1.4" height="1.4"/>
					
						<rect x="75" y="3.4" transform="matrix(0.5848 -0.8112 0.8112 0.5848 28.1357 63.1255)" class="st2" width="1.4" height="1.4"/>
					
						<rect x="76.2" y="4.2" transform="matrix(0.5848 -0.8112 0.8112 0.5848 27.9427 64.4197)" class="st3" width="1.4" height="1.4"/>
					
						<rect x="76.5" y="6.2" transform="matrix(0.5848 -0.8112 0.8112 0.5848 26.4523 65.5184)" class="st2" width="1.4" height="1.4"/>
					
						<rect x="77.7" y="7" transform="matrix(0.5848 -0.8112 0.8112 0.5848 26.2526 66.8077)" class="st2" width="1.4" height="1.4"/>
					
						<rect x="79.7" y="6.7" transform="matrix(0.5848 -0.8112 0.8112 0.5848 27.3423 68.2968)" class="st3" width="1.4" height="1.4"/>
					
						<rect x="75.9" y="2.2" transform="matrix(0.5848 -0.8112 0.8112 0.5848 29.4251 63.3251)" class="st1" width="1.4" height="1.4"/>
					
						<rect x="81.7" y="6.4" transform="matrix(0.5848 -0.8112 0.8112 0.5848 28.4387 69.7907)" class="st1" width="1.4" height="1.4"/>
				</g>
				
					<rect x="74.2" y="4.5" transform="matrix(0.5875 -0.8092 0.8092 0.5875 26.6532 62.7758)" class="st4" width="1.4" height="1.4"/>
				
					<rect x="75.3" y="5.4" transform="matrix(0.5875 -0.8092 0.8092 0.5875 26.457 64.0535)" class="st4" width="1.4" height="1.4"/>
				
					<rect x="75.7" y="7.4" transform="matrix(0.5875 -0.8092 0.8092 0.5875 24.9737 65.1481)" class="st4" width="1.4" height="1.4"/>
				
					<rect x="76.8" y="8.2" transform="matrix(0.5875 -0.8092 0.8092 0.5875 24.7735 66.438)" class="st4" width="1.4" height="1.4"/>
				<rect x="80" y="8.7" transform="matrix(0.5888 -0.8083 0.8083 0.5888 25.5684 69.1289)" class="st4" width="1.4" height="1.4"/>
				
					<rect x="73.3" y="5.7" transform="matrix(0.5875 -0.8092 0.8092 0.5875 25.3699 62.5805)" class="st5" width="1.4" height="1.4"/>
				<rect x="78" y="9" transform="matrix(0.5888 -0.8083 0.8083 0.5888 24.4955 67.6419)" class="st4" width="1.4" height="1.4"/>
				
					<rect x="79.2" y="9.9" transform="matrix(0.5875 -0.8092 0.8092 0.5875 24.3759 69.0146)" class="st5" width="1.4" height="1.4"/>
				
					<rect x="72.2" y="4.8" transform="matrix(0.5875 -0.8092 0.8092 0.5875 25.5719 61.3021)" class="st4" width="1.4" height="1.4"/>
				
					<rect x="80.3" y="10.7" transform="matrix(0.5875 -0.8092 0.8092 0.5875 24.1771 70.2864)" class="st4" width="1.4" height="1.4"/>
				
					<rect x="74.5" y="6.5" transform="matrix(0.5875 -0.8092 0.8092 0.5875 25.1698 63.8704)" class="st4" width="1.4" height="1.4"/>
				
					<rect x="78.8" y="7.9" transform="matrix(0.5875 -0.8092 0.8092 0.5875 25.8698 67.9228)" class="st4" width="1.4" height="1.4"/>
				
					<rect x="74.8" y="8.5" transform="matrix(0.5875 -0.8092 0.8092 0.5875 23.7054 64.932)" class="st4" width="1.4" height="1.4"/>
				<rect x="76" y="9.3" transform="matrix(0.5888 -0.8083 0.8083 0.5888 23.4224 66.107)" class="st4" width="1.4" height="1.4"/>
				
					<rect x="72.5" y="6.8" transform="matrix(0.5875 -0.8092 0.8092 0.5875 24.0944 62.3606)" class="st4" width="1.4" height="1.4"/>
				
					<rect x="77.1" y="10.1" transform="matrix(0.5875 -0.8092 0.8092 0.5875 23.3133 67.4515)" class="st4" width="1.4" height="1.4"/>
				
					<rect x="78.3" y="11" transform="matrix(0.5875 -0.8092 0.8092 0.5875 23.1188 68.7425)" class="st4" width="1.4" height="1.4"/>
				<rect x="71.4" y="6" transform="matrix(0.5875 -0.8092 0.8092 0.5875 24.2924 61.0944)" class="st4" width="1.4" height="1.4"/>
				
					<rect x="79.4" y="11.8" transform="matrix(0.5875 -0.8092 0.8092 0.5875 22.9192 70.0109)" class="st4" width="1.4" height="1.4"/>
				
					<rect x="73.7" y="7.7" transform="matrix(0.5875 -0.8092 0.8092 0.5875 23.8943 63.6505)" class="st4" width="1.4" height="1.4"/>
				<rect x="74" y="9.7" transform="matrix(0.5875 -0.8092 0.8092 0.5875 22.4224 64.7433)" class="st4" width="1.4" height="1.4"/>
				
					<rect x="75.1" y="10.5" transform="matrix(0.5875 -0.8092 0.8092 0.5875 22.2437 65.993)" class="st4" width="1.4" height="1.4"/>
				<rect x="71.7" y="8" transform="matrix(0.5875 -0.8092 0.8092 0.5875 22.8187 62.1757)" class="st4" width="1.4" height="1.4"/>
				<polygon class="st5" points="76.8,11 78,11.9 77.2,13.1 76,12.2 				"/>
				
					<rect x="77.5" y="12.2" transform="matrix(0.5875 -0.8092 0.8092 0.5875 21.8336 68.6113)" class="st4" width="1.4" height="1.4"/>
				<polygon class="st5" points="71.1,6.9 72.2,7.7 71.4,8.9 70.2,8.1 				"/>
				
					<rect x="78.6" y="13" transform="matrix(0.5875 -0.8092 0.8092 0.5875 21.6277 69.8916)" class="st5" width="1.4" height="1.4"/>
				
					<rect x="72.8" y="8.8" transform="matrix(0.5888 -0.8083 0.8083 0.5888 22.5148 63.3745)" class="st5" width="1.4" height="1.4"/>
				
					<rect x="73.2" y="10.8" transform="matrix(0.5875 -0.8092 0.8092 0.5875 21.1482 64.5495)" class="st4" width="1.4" height="1.4"/>
				
					<rect x="74.3" y="11.7" transform="matrix(0.5875 -0.8092 0.8092 0.5875 20.948 65.8394)" class="st4" width="1.4" height="1.4"/>
				
					<rect x="70.8" y="9.1" transform="matrix(0.5875 -0.8092 0.8092 0.5875 21.5458 61.9729)" class="st4" width="1.4" height="1.4"/>
				
					<rect x="75.5" y="12.5" transform="matrix(0.5875 -0.8092 0.8092 0.5875 20.7519 67.1171)" class="st4" width="1.4" height="1.4"/>
				
					<rect x="76.6" y="13.3" transform="matrix(0.5875 -0.8092 0.8092 0.5875 20.5602 68.3853)" class="st4" width="1.4" height="1.4"/>
				
					<rect x="69.7" y="8.4" transform="matrix(0.5888 -0.8083 0.8083 0.5888 21.6223 60.6446)" class="st4" width="1.4" height="1.4"/>
				
					<rect x="77.8" y="14.1" transform="matrix(0.5875 -0.8092 0.8092 0.5875 20.351 69.6421)" class="st4" width="1.4" height="1.4"/>
				<rect x="72" y="10" transform="matrix(0.5875 -0.8092 0.8092 0.5875 21.3538 63.2587)" class="st4" width="1.4" height="1.4"/>
				<rect x="72.3" y="12" transform="matrix(0.5888 -0.8083 0.8083 0.5888 19.7737 64.261)" class="st4" width="1.4" height="1.4"/>
				
					<rect x="73.5" y="12.7" transform="matrix(0.5875 -0.8092 0.8092 0.5875 19.7277 65.6339)" class="st4" width="1.4" height="1.4"/>
				
					<rect x="70" y="10.2" transform="matrix(0.5875 -0.8092 0.8092 0.5875 20.3255 61.7674)" class="st4" width="1.4" height="1.4"/>
				
					<rect x="74.7" y="13.6" transform="matrix(0.5875 -0.8092 0.8092 0.5875 19.5235 66.9157)" class="st5" width="1.4" height="1.4"/>
				
					<rect x="75.9" y="14.4" transform="matrix(0.5875 -0.8092 0.8092 0.5875 19.33 68.2105)" class="st4" width="1.4" height="1.4"/>
				<polygon class="st5" points="71.7,10.8 72.9,11.7 72,12.9 70.9,12 				"/>
				
					<rect x="71.5" y="13.1" transform="matrix(0.5875 -0.8092 0.8092 0.5875 18.6469 64.1453)" class="st4" width="1.4" height="1.4"/>
				
					<rect x="72.7" y="13.9" transform="matrix(0.5888 -0.8083 0.8083 0.5888 18.3742 65.3403)" class="st4" width="1.4" height="1.4"/>
				
					<rect x="69.2" y="11.4" transform="matrix(0.5875 -0.8092 0.8092 0.5875 19.0471 61.5655)" class="st4" width="1.4" height="1.4"/>
				
					<rect x="73.8" y="14.7" transform="matrix(0.5875 -0.8092 0.8092 0.5875 18.2471 66.712)" class="st4" width="1.4" height="1.4"/>
				
					<rect x="75" y="15.6" transform="matrix(0.5875 -0.8092 0.8092 0.5875 18.0422 67.9821)" class="st4" width="1.4" height="1.4"/>
				
					<rect x="70.4" y="12.2" transform="matrix(0.5875 -0.8092 0.8092 0.5875 18.847 62.8554)" class="st4" width="1.4" height="1.4"/>
				
					<rect x="70.7" y="14.2" transform="matrix(0.5875 -0.8092 0.8092 0.5875 17.3945 63.9421)" class="st4" width="1.4" height="1.4"/>
				
					<rect x="71.9" y="15" transform="matrix(0.5875 -0.8092 0.8092 0.5875 17.1969 65.2287)" class="st4" width="1.4" height="1.4"/>
				
					<rect x="73" y="15.9" transform="matrix(0.5875 -0.8092 0.8092 0.5875 16.9927 66.5106)" class="st4" width="1.4" height="1.4"/>
				
					<rect x="69.5" y="13.3" transform="matrix(0.5875 -0.8092 0.8092 0.5875 17.5946 62.6522)" class="st4" width="1.4" height="1.4"/>
				
					<rect x="69.9" y="15.3" transform="matrix(0.5875 -0.8092 0.8092 0.5875 16.1161 63.7401)" class="st4" width="1.4" height="1.4"/>
				
					<rect x="71" y="16.2" transform="matrix(0.5875 -0.8092 0.8092 0.5875 15.9227 65.0349)" class="st4" width="1.4" height="1.4"/>
				<polygon class="st4" points="71.5,3.9 72.7,4.7 71.8,5.9 70.6,5 				"/>
				<polygon class="st4" points="70.7,5 71.8,5.9 71,7 69.8,6.2 				"/>
				<polygon class="st4" points="69.8,6.2 71,7 70.2,8.2 69,7.3 				"/>
				<polygon class="st4" points="69,7.3 70.2,8.2 69.3,9.3 68.1,8.5 				"/>
				
					<rect x="81.4" y="11.5" transform="matrix(0.5888 -0.8083 0.8083 0.5888 23.8696 71.372)" class="st4" width="1.4" height="1.4"/>
				
					<rect x="80.5" y="12.6" transform="matrix(0.5875 -0.8092 0.8092 0.5875 22.7167 71.2601)" class="st4" width="1.4" height="1.4"/>
				
					<rect x="79.7" y="13.8" transform="matrix(0.5875 -0.8092 0.8092 0.5875 21.449 71.0505)" class="st4" width="1.4" height="1.4"/>
				
					<rect x="78.8" y="14.9" transform="matrix(0.5875 -0.8092 0.8092 0.5875 20.1566 70.8415)" class="st4" width="1.4" height="1.4"/>
				
					<rect x="68.9" y="9.5" transform="matrix(0.5875 -0.8092 0.8092 0.5875 20.4332 60.5194)" class="st4" width="1.4" height="1.4"/>
				
					<rect x="77" y="15.3" transform="matrix(0.5875 -0.8092 0.8092 0.5875 19.0662 69.4696)" class="st4" width="1.4" height="1.4"/>
				<rect x="73" y="3.7" transform="matrix(0.5875 -0.8092 0.8092 0.5875 26.8537 61.5064)" class="st4" width="1.4" height="1.4"/>
				
					<rect x="81.2" y="9.6" transform="matrix(0.5875 -0.8092 0.8092 0.5875 25.4534 70.5007)" class="st4" width="1.4" height="1.4"/>
				
					<rect x="71.4" y="14.4" transform="matrix(0.5875 -0.8092 0.8092 0.5875 17.5037 64.6262)" class="st5" width="1.4" height="1.4"/>
			</g>
		</g>
	</g>
</g>
</svg>
